<?xml version="1.0" standalone="no"?>
<!DOCTYPE svg PUBLIC "-//W3C//DTD SVG 20010904//EN"
 "http://www.w3.org/TR/2001/REC-SVG-20010904/DTD/svg10.dtd">
<svg version="1.0" xmlns="http://www.w3.org/2000/svg"
 width="500.000000pt" height="500.000000pt" viewBox="0 0 500.000000 500.000000"
 preserveAspectRatio="xMidYMid meet">

<g transform="translate(0.000000,500.000000) scale(0.100000,-0.100000)"
fill="#000000" stroke="none">
<path d="M1998 3429 c-21 -12 -24 -44 -5 -56 6 -4 52 -14 101 -23 l88 -16 34
-84 c118 -291 243 -624 237 -630 -4 -3 -32 -25 -60 -49 -39 -32 -55 -53 -64
-83 -12 -48 1 -91 37 -114 l22 -15 -24 -24 c-33 -33 -32 -77 2 -104 35 -27 59
-26 89 4 29 28 32 61 9 93 l-15 22 311 0 311 0 -15 -22 c-54 -76 47 -157 107
-86 21 25 22 57 1 86 -15 21 -14 22 19 22 38 0 61 19 52 42 -8 21 -88 26 -484
27 -184 1 -338 4 -343 7 -4 3 -8 16 -8 29 0 17 17 37 63 72 34 27 68 53 76 57
18 12 97 20 401 46 140 11 258 24 263 29 4 4 20 105 34 224 21 166 24 220 15
229 -13 13 -48 15 -550 31 l-363 12 -45 115 c-25 63 -50 120 -57 127 -11 11
-102 30 -187 38 -19 2 -43 -1 -52 -6z m482 -399 l0 -60 -33 0 c-31 0 -34 3
-55 60 l-21 60 54 0 55 0 0 -60z m106 50 l44 0 0 -55 0 -55 -60 0 -60 0 0 61
c0 52 2 60 16 55 9 -3 36 -6 60 -6z m194 -55 l0 -55 -60 0 -60 0 0 55 0 55 60
0 60 0 0 -55z m150 0 l0 -55 -60 0 -60 0 0 55 0 55 60 0 60 0 0 -55z m150 -5
c0 -67 -1 -67 -82 -54 -38 7 -38 7 -38 55 0 52 3 55 83 58 l37 1 0 -60z m130
35 c0 -11 -3 -37 -6 -57 -7 -38 -7 -38 -55 -38 l-49 0 0 59 0 59 55 -1 c48 -1
55 -4 55 -22z m-130 -175 l0 -60 -65 0 c-72 0 -71 -1 -59 72 7 40 15 44 87 47
l37 1 0 -60z m110 23 c0 -71 -8 -83 -51 -83 l-39 0 0 60 0 60 45 0 45 0 0 -37z
m-710 -30 c0 -31 -2 -54 -4 -52 -2 2 -13 28 -24 57 l-20 52 24 0 c23 0 24 -3
24 -57z m150 2 l0 -55 -60 0 -60 0 0 55 0 55 60 0 60 0 0 -55z m150 0 l0 -55
-60 0 -60 0 0 55 0 55 60 0 60 0 0 -55z m150 0 l0 -55 -60 0 -60 0 0 55 0 55
60 0 60 0 0 -55z m0 -128 l0 -54 -65 -2 c-63 -2 -65 -1 -61 21 3 13 5 35 5 50
1 28 11 32 94 36 26 2 27 1 27 -51z m150 9 c0 -41 -2 -44 -31 -50 -17 -3 -47
-6 -65 -6 -33 0 -34 1 -34 43 0 24 3 47 7 50 3 4 33 7 65 7 l58 0 0 -44z m94
7 c-8 -50 -10 -53 -45 -53 -28 0 -29 2 -29 45 l0 45 40 0 40 0 -6 -37z m-544
-27 c0 -52 -1 -54 -31 -60 -56 -11 -67 -7 -78 25 -6 18 -11 45 -11 60 0 29 1
29 60 29 l60 0 0 -54z m150 2 l0 -53 -60 -2 -60 -2 0 54 0 55 60 0 60 0 0 -52z
m-336 -430 c13 -19 14 -25 2 -43 -7 -11 -24 -20 -36 -20 -12 0 -29 9 -36 20
-12 18 -11 24 2 43 8 12 24 22 34 22 10 0 26 -10 34 -22z m703 -4 c12 -19 11
-24 -5 -44 -14 -18 -25 -21 -45 -16 -34 8 -44 41 -21 67 22 24 52 21 71 -7z"/>
<path d="M2392 2283 c2 -10 10 -18 18 -18 8 0 16 8 18 18 2 12 -3 17 -18 17
-15 0 -20 -5 -18 -17z"/>
<path d="M3092 2283 c2 -10 10 -18 18 -18 8 0 16 8 18 18 2 12 -3 17 -18 17
-15 0 -20 -5 -18 -17z"/>
<path d="M1953 2105 c-41 -17 -65 -55 -65 -101 0 -43 27 -74 99 -113 37 -20
48 -32 48 -51 0 -39 -44 -49 -99 -22 l-44 21 -14 -22 c-8 -12 -18 -28 -22 -35
-11 -19 70 -52 130 -52 101 0 144 33 144 113 0 52 -23 77 -103 117 -42 20 -52
30 -52 50 0 22 5 25 37 28 20 2 46 -2 57 -8 18 -9 23 -6 37 21 18 35 14 41
-35 58 -44 14 -79 13 -118 -4z"/>
<path d="M2274 2101 c-140 -63 -147 -278 -12 -351 l46 -25 -24 -18 c-41 -30
-31 -47 24 -41 30 4 63 0 91 -10 59 -22 103 -20 129 4 25 24 26 27 9 57 -9 16
-16 20 -27 13 -20 -13 -87 -13 -95 0 -3 6 -1 10 6 10 24 0 82 54 100 94 76
167 -85 341 -247 267z m113 -72 c68 -23 86 -147 28 -196 -54 -47 -137 -20
-156 49 -22 82 13 142 92 157 3 0 20 -4 36 -10z"/>
<path d="M1400 1920 l0 -190 61 0 c84 0 137 18 180 61 93 93 57 262 -64 308
-16 6 -62 11 -103 11 l-74 0 0 -190z m150 103 c35 -24 48 -43 55 -80 12 -64
-38 -133 -97 -133 l-28 0 0 115 c0 113 0 115 23 115 12 0 34 -8 47 -17z"/>
<path d="M2580 1975 c0 -210 28 -252 163 -243 116 7 136 46 137 256 l0 122
-45 0 -45 0 0 -134 c0 -151 -6 -166 -64 -166 -54 0 -61 17 -64 167 l-4 133
-39 0 -39 0 0 -135z"/>
<path d="M2968 1920 l-77 -190 45 0 c42 0 45 2 60 40 l16 41 76 -3 75 -3 12
-35 c11 -32 15 -35 58 -38 l45 -3 -76 190 -76 191 -40 0 -41 0 -77 -190z m136
37 c32 -78 32 -77 -18 -77 -25 0 -46 2 -46 4 0 2 6 19 14 37 7 19 16 42 19 52
9 24 15 21 31 -16z"/>
<path d="M3300 1920 l0 -190 40 0 39 0 3 77 3 77 59 -77 59 -77 54 0 54 0 -65
77 -65 78 29 23 c59 46 58 145 -3 182 -25 16 -50 20 -119 20 l-88 0 0 -190z
m148 114 c44 -30 14 -94 -45 -94 -21 0 -23 4 -23 55 0 51 2 55 23 55 12 0 33
-7 45 -16z"/>
<path d="M3630 1920 l0 -190 110 0 110 0 0 35 0 35 -65 0 -65 0 0 45 0 45 60
0 60 0 0 35 0 35 -60 0 -60 0 0 40 0 40 65 0 65 0 0 35 0 35 -110 0 -110 0 0
-190z"/>
<path d="M1598 1513 c8 -3 12 -27 12 -72 0 -40 -5 -72 -12 -80 -11 -11 -2 -12
46 -9 69 6 96 29 96 85 0 54 -36 83 -102 82 -29 0 -47 -3 -40 -6z m110 -30
c14 -19 16 -71 4 -91 -10 -14 -68 -33 -76 -24 -3 3 -6 37 -6 75 l0 70 33 -7
c17 -3 38 -14 45 -23z"/>
<path d="M2038 1514 c8 -4 12 -30 12 -79 0 -49 -4 -75 -12 -78 -7 -3 0 -6 15
-6 20 -1 26 3 20 12 -4 6 -8 43 -8 82 0 62 -2 70 -20 72 -11 2 -14 0 -7 -3z"/>
<path d="M2331 1506 c-7 -8 -9 -25 -6 -38 4 -16 1 -29 -9 -37 -44 -37 5 -97
59 -73 15 7 27 8 30 2 4 -6 11 -10 16 -10 6 0 4 7 -5 15 -15 16 -11 44 8 57 7
5 4 8 -6 8 -10 0 -18 -7 -18 -15 0 -21 -13 -19 -28 5 -10 17 -9 23 8 40 16 16
18 25 10 40 -12 23 -42 26 -59 6z m46 -12 c3 -8 -1 -23 -10 -32 -15 -14 -17
-14 -23 1 -8 21 1 47 16 47 6 0 13 -7 17 -16z m-15 -81 c22 -20 23 -39 3 -47
-34 -13 -66 24 -44 50 15 18 19 18 41 -3z"/>
<path d="M2548 1508 c15 -15 16 -138 2 -138 -5 0 -10 -5 -10 -11 0 -18 97 -5
120 16 31 28 28 98 -6 124 -30 24 -129 32 -106 9z m97 -23 c46 -46 22 -115
-41 -115 l-34 0 0 63 c0 35 3 67 7 70 14 14 45 6 68 -18z"/>
<path d="M2725 1490 c4 -6 11 -8 16 -5 14 9 11 15 -7 15 -8 0 -12 -5 -9 -10z"/>
<path d="M3471 1473 c-9 -10 -10 -17 -3 -22 6 -3 12 -27 14 -51 2 -38 7 -46
26 -48 12 -2 22 1 22 6 0 5 -8 9 -17 8 -14 -1 -19 8 -21 42 -2 33 0 42 12 42
9 0 16 5 16 10 0 6 -6 10 -14 10 -8 0 -16 4 -18 9 -1 5 -9 2 -17 -6z"/>
<path d="M1792 1454 c-26 -18 -30 -65 -6 -88 20 -21 58 -20 75 1 13 15 12 15
-8 5 -29 -16 -39 -15 -57 4 -26 25 -19 34 29 34 49 0 59 15 29 44 -19 20 -34
20 -62 0z m54 -11 c17 -17 17 -18 -4 -21 -12 -2 -32 -2 -44 0 -21 3 -21 4 -4
21 10 9 21 17 26 17 5 0 16 -8 26 -17z"/>
<path d="M1915 1460 c-17 -8 -15 -9 10 -8 33 2 55 -7 55 -23 0 -5 -11 -9 -24
-9 -13 0 -33 -8 -45 -17 -20 -16 -20 -20 -7 -38 13 -18 18 -19 45 -8 17 6 31
7 31 2 0 -5 8 -9 17 -9 13 0 14 3 5 12 -7 7 -12 29 -12 50 0 50 -29 68 -75 48z
m65 -65 c0 -18 -37 -38 -56 -31 -17 7 -18 33 -1 39 26 11 57 7 57 -8z"/>
<path d="M2122 1458 c-21 -21 -13 -39 24 -54 19 -8 34 -20 31 -27 -6 -20 -40
-21 -54 -1 -12 16 -13 16 -13 1 0 -20 47 -34 69 -20 26 17 18 37 -22 56 -32
15 -37 20 -27 32 16 19 25 19 44 -1 14 -13 16 -13 16 -1 0 8 -10 17 -22 21
-31 8 -32 8 -46 -6z"/>
<path d="M2710 1460 c0 -5 5 -10 10 -10 14 0 12 -74 -2 -88 -9 -9 -6 -12 17
-12 23 0 26 3 17 12 -7 7 -12 34 -12 60 0 36 -4 48 -15 48 -8 0 -15 -4 -15
-10z"/>
<path d="M2803 1463 c-27 -10 -14 -44 23 -59 36 -15 41 -36 10 -42 -10 -2 -26
4 -37 14 -18 16 -19 16 -19 -2 0 -17 7 -20 43 -19 38 0 42 2 42 25 0 17 -6 26
-20 28 -22 5 -45 20 -45 32 0 17 34 20 51 4 17 -15 19 -15 19 -2 0 20 -40 33
-67 21z"/>
<path d="M2922 1454 c-26 -18 -30 -65 -6 -88 20 -20 58 -20 74 0 12 13 10 14
-13 3 -23 -10 -30 -9 -47 6 -25 23 -22 53 7 72 19 13 24 12 42 -6 l21 -21 0
28 c0 19 -3 23 -9 13 -6 -9 -11 -10 -15 -2 -10 15 -28 14 -54 -5z"/>
<path d="M3052 1454 c-43 -30 -20 -104 32 -104 52 0 76 75 34 104 -12 9 -27
16 -33 16 -6 0 -21 -7 -33 -16z m69 -26 c8 -14 6 -25 -6 -44 -18 -28 -32 -30
-57 -7 -24 22 -23 48 3 67 25 17 45 12 60 -16z"/>
<path d="M3160 1460 c0 -5 4 -10 9 -10 6 0 11 -19 13 -41 4 -50 27 -71 58 -51
12 7 20 8 20 2 0 -5 8 -10 18 -9 10 0 12 3 5 6 -8 3 -13 25 -13 59 0 41 -4 54
-15 54 -8 0 -15 -4 -15 -10 0 -5 5 -10 10 -10 6 0 10 -16 10 -35 0 -24 -6 -37
-21 -45 -31 -17 -49 4 -49 56 0 32 -4 44 -15 44 -8 0 -15 -4 -15 -10z"/>
<path d="M3310 1460 c0 -5 5 -10 10 -10 14 0 12 -74 -2 -88 -9 -9 -6 -12 16
-12 24 0 26 2 17 14 -7 8 -11 30 -9 48 2 26 8 34 27 36 29 5 41 -12 41 -60 0
-30 4 -38 18 -37 10 0 12 3 5 6 -8 3 -13 23 -13 48 0 53 -19 73 -55 57 -15 -7
-25 -8 -25 -2 0 6 -7 10 -15 10 -8 0 -15 -4 -15 -10z"/>
<path d="M3578 1459 c-28 -16 -21 -37 18 -54 20 -8 34 -20 32 -27 -7 -20 -34
-21 -52 -3 -15 15 -16 15 -16 -2 0 -13 9 -19 34 -20 63 -5 72 46 10 61 -16 4
-24 13 -22 23 4 23 23 27 42 8 14 -15 16 -15 16 -1 0 9 -4 16 -9 16 -5 0 -15
2 -23 5 -7 2 -21 0 -30 -6z"/>
</g>
</svg>
